<svg width="1512" height="849" viewBox="0 0 1512 849" fill="none" xmlns="http://www.w3.org/2000/svg">
<g clip-path="url(#clip0_317_1024)">
<rect width="1512" height="849" fill="white"/>
<path d="M461.425 766.152C453.994 782.192 446.648 798.943 438.097 815.262C433.143 824.369 427.672 833.972 420.328 841.205C410.292 851.215 396.468 853.753 385.725 844.816C378.664 838.893 373.541 827.544 372.725 818.415C371.93 808.273 375.507 797.314 379.966 787.69C406.224 729.43 431.88 670.953 460.248 613.447C475.822 581.281 507.282 573.148 534.451 595.094C558.929 615.059 580.694 638.813 601.231 663.148C631.347 698.725 659.396 736.282 687.962 773.344C690.33 776.229 689.812 781.483 690.824 786.263C669.868 809.708 645.15 805.634 622.071 791.268C606.29 781.209 592.835 766.543 579.768 752.696C567.002 738.956 555.894 723.429 544.851 709.625C529.369 713.95 534.018 723.769 535.48 731.091C553.271 817.33 600.865 887.705 657.181 952.7C667.944 965.384 683.23 974.926 698.042 982.939C864.812 1071.77 1041.73 1107.46 1229.69 1081.83C1310.53 1070.6 1378.21 1030.55 1439.65 979.42C1450.68 970.443 1456.66 955.587 1465.62 943.832C1474.17 932.271 1486.38 929.496 1499.56 933.525C1514.95 938.006 1526.92 951.121 1525.8 965.677C1524.72 978.208 1522.31 991.623 1515.91 1001.91C1507.4 1016.21 1496.27 1030.25 1483.28 1040.9C1408.43 1103.89 1324.64 1149.07 1225.5 1159.19C1090.34 1173.1 956.995 1163.86 828.307 1116.85C768.129 1095 708.037 1073.87 652.879 1039.88C619.508 1019.12 592.124 993.017 570.642 960.865C533.552 905.801 499.22 849.682 479.638 785.577C477.636 779.763 474.214 774.121 470.985 768.888C470.102 767.553 467.066 767.488 461.425 766.152Z" fill="#7B61FF" fill-opacity="0.08"/>
</g>
<defs>
<clipPath id="clip0_317_1024">
<rect width="1512" height="849" fill="white"/>
</clipPath>
</defs>
</svg>
